<svg width="103" height="39" viewBox="0 0 103 39" fill="none" xmlns="http://www.w3.org/2000/svg">
<path d="M12.9908 31.8673C12.3586 32.2323 11.7134 32.4548 11.0551 32.5346C10.3968 32.6144 9.75281 32.559 9.12309 32.3683C8.48838 32.169 7.89777 31.846 7.35127 31.3994C6.81342 30.9478 6.347 30.38 5.952 29.6958C5.577 29.0463 5.34208 28.3794 5.24725 27.6951C5.15608 26.9972 5.19151 26.3186 5.35354 25.6592C5.51557 24.9999 5.79755 24.3983 6.19949 23.8545C6.60142 23.3106 7.11416 22.8587 7.7377 22.4987C8.17937 22.2437 8.64806 22.0655 9.14375 21.9641C9.6431 21.849 10.1317 21.8152 10.6094 21.8627C11.0908 21.8965 11.5273 22.0025 11.9188 22.1806L11.546 23.6948C11.1498 23.5887 10.7743 23.5284 10.4195 23.5138C10.0684 23.4856 9.73358 23.5057 9.41511 23.5741C9.10531 23.6375 8.81617 23.7467 8.5477 23.9017C8.12335 24.1467 7.77248 24.459 7.49508 24.8385C7.22135 25.2044 7.02842 25.6102 6.9163 26.056C6.81283 26.4968 6.79815 26.9614 6.87227 27.4498C6.94138 27.9295 7.11094 28.4032 7.38094 28.8708C7.66594 29.3644 7.99955 29.7723 8.38178 30.0943C8.76766 30.4027 9.18167 30.6198 9.6238 30.7455C10.0659 30.8713 10.5225 30.9022 10.9936 30.8381C11.4683 30.7603 11.9395 30.5864 12.4071 30.3164C12.6929 30.1514 12.9519 29.9499 13.184 29.712C13.4161 29.474 13.6109 29.2115 13.7684 28.9242C13.9259 28.637 14.0467 28.3363 14.1309 28.0221L15.4924 28.7603C15.4282 29.1091 15.2779 29.4788 15.0415 29.8693C14.8138 30.2548 14.5202 30.6264 14.1609 30.984C13.8052 31.3279 13.4151 31.6223 12.9908 31.8673ZM17.7315 28.9571L12.1815 19.3442L13.5195 18.5717L19.0695 28.1846L17.7315 28.9571ZM21.1866 26.9623L17.2491 20.1423L18.5871 19.3698L22.5246 26.1898L21.1866 26.9623ZM17.0286 18.2605C16.7428 18.4255 16.4795 18.4793 16.2386 18.4221C15.9977 18.3649 15.7998 18.202 15.6448 17.9336C15.4998 17.6824 15.4602 17.4339 15.5261 17.188C15.6007 16.9371 15.7765 16.7317 16.0536 16.5717C16.3394 16.4067 16.6027 16.3528 16.8436 16.41C17.0845 16.4673 17.2825 16.6301 17.4375 16.8986C17.5825 17.1497 17.6177 17.4007 17.5431 17.6516C17.4773 17.8975 17.3057 18.1005 17.0286 18.2605ZM27.5531 23.4598C26.9209 23.8248 26.2637 23.9964 25.5814 23.9746C24.9077 23.9479 24.2687 23.751 23.6642 23.3841C23.0685 23.0121 22.5781 22.4928 22.1931 21.8259C21.8081 21.1591 21.6035 20.4747 21.5792 19.7728C21.5637 19.0658 21.7127 18.414 22.0264 17.8172C22.3487 17.2154 22.8259 16.732 23.4581 16.367C24.0643 16.017 24.6867 15.8251 25.3254 15.7913C25.9677 15.7437 26.5412 15.8572 27.046 16.1315L26.8306 17.4683C26.577 17.3492 26.2945 17.2698 25.983 17.2302C25.6715 17.1907 25.367 17.1933 25.0695 17.238C24.772 17.2828 24.5107 17.3701 24.2855 17.5001C23.8698 17.7401 23.5574 18.0591 23.3483 18.4569C23.1429 18.8411 23.0474 19.2657 23.0619 19.7308C23.0764 20.1959 23.2111 20.6492 23.4661 21.0909C23.7211 21.5326 24.0507 21.8735 24.4549 22.1135C24.8541 22.3449 25.2782 22.4696 25.7273 22.4874C26.1764 22.5053 26.6001 22.3992 26.9985 22.1692C27.2323 22.0342 27.435 21.8652 27.6065 21.6623C27.7867 21.4543 27.9357 21.2124 28.0535 20.9365C28.1714 20.6606 28.2562 20.3576 28.3081 20.0275L29.5735 20.5093C29.5214 21.059 29.308 21.6094 28.9334 22.1606C28.5675 22.7067 28.1074 23.1398 27.5531 23.4598ZM31.5242 18.1533L30.6193 16.7359L32.0124 11.6188L33.818 10.5763L31.5242 18.1533ZM31.5331 20.9887L25.9831 11.3758L27.3211 10.6033L32.8711 20.2162L31.5331 20.9887ZM36.1317 18.3337L31.8271 16.8179L32.2729 15.4001L37.8465 17.3437L36.1317 18.3337ZM40.9446 11.3808C40.5689 10.8702 40.1876 10.3398 39.8007 9.78953C39.4174 9.22564 39.0477 8.6654 38.6918 8.10882C38.3358 7.55225 38.0103 7.01848 37.7153 6.50752L37.1903 5.5982L38.5932 4.7882L39.1182 5.69752C39.4282 6.23446 39.7403 6.80488 40.0543 7.40877C40.3683 8.01267 40.6668 8.61974 40.9499 9.22998C41.2366 9.82655 41.4946 10.3935 41.724 10.9308L40.9446 11.3808ZM43.1853 14.4519C42.8995 14.6169 42.6312 14.6621 42.3803 14.5875C42.1244 14.5043 41.9065 14.3069 41.7265 13.9951C41.5615 13.7093 41.5087 13.428 41.5683 13.1511C41.6278 12.8742 41.7918 12.6583 42.0603 12.5033C42.3461 12.3383 42.6169 12.2974 42.8728 12.3806C43.1237 12.4552 43.3391 12.6483 43.5191 12.9601C43.6841 13.2459 43.7369 13.5272 43.6773 13.8041C43.6178 14.0809 43.4538 14.2969 43.1853 14.4519Z" fill="black"/>
<path d="M33 28.297C42.3333 33.297 64.3 39.097 77.5 22.297C94 1.29697 64.5 -2.20303 61.5 6.29697C58.5 14.797 57.5 38.297 72.5 33.297C84.5 29.297 97.1667 16.9637 102 11.297" stroke="black"/>
<path d="M91 12L102.5 11V21.5" stroke="black"/>
</svg>
