<svg width="232" height="465" viewBox="0 0 232 465" fill="none" xmlns="http://www.w3.org/2000/svg">
<path d="M1 8C1 12.4183 4.58172 16 9 16C13.4183 16 17 12.4183 17 8C17 3.58172 13.4183 0 9 0C4.58172 0 1 3.58172 1 8ZM9 9.5H90.0247V6.5H9V9.5Z" fill="#868686"/>
<path d="M1 127C1 131.418 4.58172 135 9 135C13.4183 135 17 131.418 17 127C17 122.582 13.4183 119 9 119C4.58172 119 1 122.582 1 127ZM9 128.5H90.0247V125.5H9V128.5Z" fill="#868686"/>
<path d="M0.99353 232C0.99353 236.418 4.57525 240 8.99353 240C13.4118 240 16.9935 236.418 16.9935 232C16.9935 227.582 13.4118 224 8.99353 224C4.57525 224 0.99353 227.582 0.99353 232ZM8.99353 233.5H164.006V230.5H8.99353V233.5Z" fill="#868686"/>
<path d="M1 338C1 342.418 4.58172 346 9 346C13.4183 346 17 342.418 17 338C17 333.582 13.4183 330 9 330C4.58172 330 1 333.582 1 338ZM9 339.5H90.0247V336.5H9V339.5Z" fill="#868686"/>
<path d="M1 457C1 461.418 4.58172 465 9 465C13.4183 465 17 461.418 17 457C17 452.582 13.4183 449 9 449C4.58172 449 1 452.582 1 457ZM9 458.5H90.0247V455.5H9V458.5Z" fill="#868686"/>
<path d="M88 126L163.5 232" stroke="#868686" stroke-width="3"/>
<path d="M88.3302 338L163.83 232" stroke="#868686" stroke-width="3"/>
<path d="M88 457L162.834 232.083" stroke="#868686" stroke-width="3"/>
<path d="M88.4583 8L163.293 232.917" stroke="#868686" stroke-width="3"/>
</svg>
